<svg id="svg" version="1.1" xmlns="http://www.w3.org/2000/svg" xmlns:xlink="http://www.w3.org/1999/xlink" width="400" height="400" viewBox="0, 0, 400,400"><g id="svgg"><path id="path0" d="M101.600 116.749 L 101.600 119.898 103.300 120.165 C 104.235 120.311,105.540 120.592,106.200 120.789 C 106.860 120.985,108.210 121.368,109.200 121.640 C 117.816 124.004,121.004 127.971,121.978 137.542 C 122.555 143.204,122.558 268.923,121.982 274.998 C 121.388 281.269,119.918 285.051,117.183 287.353 C 115.855 288.470,111.113 290.800,110.167 290.800 C 109.849 290.800,109.277 290.963,108.895 291.162 C 108.513 291.361,106.715 291.853,104.900 292.256 L 101.600 292.987 101.600 296.094 L 101.600 299.200 137.700 299.204 C 190.537 299.209,207.666 298.255,226.600 294.251 C 229.399 293.659,230.272 293.429,234.400 292.201 C 235.610 291.841,236.960 291.453,237.400 291.340 C 237.840 291.226,238.560 290.993,239.000 290.823 C 239.440 290.652,241.330 289.924,243.200 289.206 C 247.375 287.603,254.283 284.271,257.081 282.510 C 258.225 281.789,259.258 281.200,259.376 281.200 C 259.757 281.200,266.519 276.287,269.200 274.063 C 272.776 271.096,277.655 265.993,280.350 262.400 C 281.587 260.750,282.735 259.340,282.900 259.267 C 283.065 259.193,283.200 258.938,283.200 258.698 C 283.200 258.459,283.453 257.979,283.762 257.631 C 284.868 256.390,289.101 248.284,290.828 244.100 C 291.033 243.605,291.367 242.795,291.571 242.300 C 293.930 236.585,295.998 227.793,297.287 218.000 C 297.916 213.218,297.933 192.281,297.311 187.600 C 296.690 182.925,296.075 179.265,295.630 177.600 C 291.241 161.179,285.561 150.908,275.721 141.600 C 268.149 134.437,258.057 128.103,248.000 124.202 C 247.010 123.818,245.840 123.360,245.400 123.183 C 244.960 123.007,243.700 122.559,242.600 122.189 C 241.500 121.818,240.240 121.377,239.800 121.208 C 239.077 120.929,236.632 120.230,232.800 119.204 C 228.003 117.920,218.949 116.236,213.200 115.559 C 199.480 113.942,188.323 113.631,143.500 113.615 L 101.600 113.600 101.600 116.749 M194.800 125.918 C 196.890 126.159,199.500 126.537,200.600 126.757 C 205.656 127.767,209.098 128.511,210.200 128.832 C 214.561 130.100,218.316 131.282,219.000 131.603 C 219.440 131.809,220.790 132.357,222.000 132.821 C 232.209 136.734,241.982 144.521,249.032 154.359 C 251.804 158.227,256.800 167.571,256.800 168.887 C 256.800 169.206,256.932 169.599,257.093 169.760 C 257.736 170.403,260.061 178.705,260.857 183.200 C 263.683 199.171,262.718 229.462,259.171 236.095 C 258.967 236.477,258.794 237.107,258.787 237.495 C 258.774 238.188,257.608 241.816,257.146 242.600 C 257.017 242.820,256.789 243.510,256.640 244.132 C 256.490 244.755,255.746 246.613,254.984 248.262 C 254.223 249.910,253.600 251.344,253.600 251.448 C 253.600 251.553,252.970 252.623,252.200 253.827 C 251.430 255.031,250.800 256.119,250.800 256.246 C 250.800 257.699,241.864 267.857,237.400 271.479 C 233.012 275.039,222.920 280.800,221.072 280.800 C 220.791 280.800,220.389 280.943,220.180 281.118 C 219.971 281.293,218.720 281.764,217.400 282.165 C 216.080 282.566,214.550 283.037,214.000 283.211 C 213.450 283.386,211.650 283.831,210.000 284.201 C 208.350 284.572,206.370 285.033,205.600 285.226 C 203.843 285.668,196.878 286.638,192.400 287.066 C 188.066 287.479,157.363 287.501,155.899 287.092 L 154.798 286.784 154.899 206.310 L 155.000 125.836 156.000 125.550 C 157.540 125.109,190.508 125.421,194.800 125.918 " stroke="none" fill="#3c2404" fill-rule="evenodd"></path><path id="path1" d="M40.600 29.484 C 40.160 29.590,39.629 29.840,39.420 30.039 C 39.211 30.237,38.716 30.400,38.320 30.400 C 37.924 30.400,37.600 30.560,37.600 30.757 C 37.600 30.953,37.150 31.226,36.600 31.364 C 36.050 31.502,35.600 31.792,35.600 32.008 C 35.600 32.223,35.414 32.400,35.187 32.400 C 34.669 32.400,32.400 34.691,32.400 35.214 C 32.400 35.426,32.223 35.600,32.008 35.600 C 31.792 35.600,31.502 36.050,31.364 36.600 C 31.226 37.150,30.953 37.600,30.757 37.600 C 30.560 37.600,30.400 37.945,30.400 38.367 C 30.400 38.788,30.175 39.208,29.900 39.300 C 29.164 39.545,29.164 360.455,29.900 360.700 C 30.175 360.792,30.400 361.212,30.400 361.633 C 30.400 362.055,30.560 362.400,30.757 362.400 C 30.953 362.400,31.226 362.850,31.364 363.400 C 31.502 363.950,31.792 364.400,32.008 364.400 C 32.223 364.400,32.400 364.594,32.400 364.831 C 32.400 365.391,34.609 367.600,35.169 367.600 C 35.406 367.600,35.600 367.777,35.600 367.992 C 35.600 368.208,36.050 368.498,36.600 368.636 C 37.150 368.774,37.600 369.047,37.600 369.243 C 37.600 369.440,37.924 369.600,38.320 369.600 C 38.716 369.600,39.265 369.825,39.540 370.100 C 40.276 370.836,360.455 370.836,360.700 370.100 C 360.792 369.825,361.212 369.600,361.633 369.600 C 362.055 369.600,362.400 369.420,362.400 369.200 C 362.400 368.980,362.631 368.800,362.913 368.800 C 364.209 368.800,368.800 364.209,368.800 362.913 C 368.800 362.631,368.980 362.400,369.200 362.400 C 369.420 362.400,369.600 362.055,369.600 361.633 C 369.600 361.212,369.825 360.792,370.100 360.700 C 370.836 360.455,370.836 39.545,370.100 39.300 C 369.825 39.208,369.600 38.788,369.600 38.367 C 369.600 37.945,369.440 37.600,369.243 37.600 C 369.047 37.600,368.774 37.150,368.636 36.600 C 368.498 36.050,368.208 35.600,367.992 35.600 C 367.777 35.600,367.600 35.426,367.600 35.214 C 367.600 34.691,365.331 32.400,364.813 32.400 C 364.586 32.400,364.400 32.223,364.400 32.008 C 364.400 31.792,363.950 31.502,363.400 31.364 C 362.850 31.226,362.400 30.953,362.400 30.757 C 362.400 30.560,362.055 30.400,361.633 30.400 C 361.212 30.400,360.792 30.175,360.700 29.900 C 360.535 29.405,42.635 28.991,40.600 29.484 M201.004 113.784 C 231.569 116.133,252.334 122.719,269.600 135.540 C 275.034 139.575,286.800 152.341,286.800 154.202 C 286.800 154.302,287.430 155.369,288.200 156.573 C 288.970 157.777,289.600 158.857,289.600 158.973 C 289.600 159.089,290.320 160.700,291.200 162.552 C 292.080 164.404,292.800 166.172,292.800 166.480 C 292.800 166.788,292.948 167.211,293.129 167.420 C 293.310 167.629,293.786 168.880,294.186 170.200 C 294.586 171.520,295.057 173.050,295.233 173.600 C 295.531 174.530,296.337 178.153,297.191 182.400 C 299.105 191.925,299.110 213.635,297.200 223.200 C 297.003 224.190,296.550 226.530,296.194 228.400 C 295.839 230.270,295.384 232.340,295.185 233.000 C 294.985 233.660,294.534 235.190,294.183 236.400 C 293.831 237.610,293.395 238.960,293.214 239.400 C 293.033 239.840,292.572 241.100,292.190 242.200 C 291.808 243.300,291.338 244.371,291.147 244.580 C 290.956 244.789,290.800 245.209,290.800 245.512 C 290.800 246.792,284.474 258.383,282.937 259.920 C 282.642 260.215,282.400 260.579,282.400 260.729 C 282.399 260.878,281.994 261.473,281.500 262.051 C 281.005 262.629,279.889 263.979,279.020 265.051 C 272.190 273.476,262.763 280.640,251.000 286.342 C 244.008 289.732,239.083 291.679,234.600 292.824 C 233.940 292.993,232.320 293.428,231.000 293.791 C 221.893 296.298,209.643 298.025,194.800 298.896 C 188.853 299.244,173.061 299.400,143.600 299.400 L 101.000 299.400 100.884 296.123 C 100.751 292.363,100.680 292.450,104.600 291.626 C 111.575 290.161,116.421 287.869,118.442 285.079 C 121.862 280.357,122.000 277.316,122.000 206.456 C 121.999 135.531,121.884 132.891,118.575 127.891 C 116.629 124.949,110.910 122.335,102.604 120.588 C 101.946 120.450,101.274 120.126,101.110 119.868 C 100.740 119.286,100.702 113.831,101.067 113.467 C 101.652 112.882,193.039 113.172,201.004 113.784 M160.500 125.873 L 155.600 126.025 155.600 206.180 L 155.600 286.336 158.300 286.661 C 162.470 287.163,184.315 287.058,190.800 286.505 C 202.041 285.547,213.376 283.299,219.400 280.835 C 224.773 278.637,228.761 276.698,231.400 275.001 C 234.171 273.219,235.634 272.118,240.064 268.482 C 247.127 262.684,255.737 247.808,258.401 236.800 C 265.476 207.569,261.837 172.265,250.169 156.927 C 249.636 156.226,249.200 155.476,249.200 155.260 C 249.200 155.044,249.065 154.807,248.900 154.733 C 248.735 154.660,247.801 153.549,246.824 152.264 C 244.676 149.440,240.527 145.180,237.800 142.999 C 236.700 142.120,235.710 141.298,235.600 141.172 C 235.205 140.723,226.969 135.731,225.600 135.111 C 220.138 132.639,217.990 131.803,214.000 130.597 C 209.348 129.190,208.262 128.911,204.800 128.235 C 203.150 127.912,201.260 127.541,200.600 127.411 C 194.250 126.152,175.170 125.421,160.500 125.873 " stroke="none" fill="#f3fbd3" fill-rule="evenodd"></path><path id="path2" d="M183.700 113.491 C 184.525 113.578,185.875 113.578,186.700 113.491 C 187.525 113.405,186.850 113.334,185.200 113.334 C 183.550 113.334,182.875 113.405,183.700 113.491 M170.923 125.499 C 173.520 125.569,177.660 125.568,180.123 125.498 C 182.585 125.428,180.460 125.371,175.400 125.372 C 170.340 125.372,168.325 125.429,170.923 125.499 M183.905 299.083 C 184.402 299.179,185.122 299.175,185.505 299.075 C 185.887 298.975,185.480 298.896,184.600 298.901 C 183.720 298.905,183.407 298.987,183.905 299.083 M119.330 299.500 C 129.192 299.560,145.212 299.559,154.930 299.500 C 164.649 299.440,156.580 299.391,137.000 299.392 C 117.420 299.392,109.469 299.440,119.330 299.500 " stroke="none" fill="#928d74" fill-rule="evenodd"></path><path id="path3" d="M100.968 113.740 C 100.854 114.037,100.817 115.522,100.885 117.040 L 101.010 119.800 101.205 116.499 C 101.400 113.203,101.358 112.722,100.968 113.740 M189.913 113.495 C 191.076 113.576,192.876 113.576,193.913 113.493 C 194.951 113.411,194.000 113.345,191.800 113.346 C 189.600 113.347,188.751 113.414,189.913 113.495 M197.100 113.889 C 197.815 113.978,198.985 113.978,199.700 113.889 C 200.415 113.801,199.830 113.728,198.400 113.728 C 196.970 113.728,196.385 113.801,197.100 113.889 M203.905 114.283 C 204.402 114.379,205.122 114.375,205.505 114.275 C 205.887 114.175,205.480 114.096,204.600 114.101 C 203.720 114.105,203.407 114.187,203.905 114.283 M208.300 114.682 C 208.795 114.778,209.605 114.778,210.100 114.682 C 210.595 114.587,210.190 114.509,209.200 114.509 C 208.210 114.509,207.805 114.587,208.300 114.682 M222.433 116.547 C 222.525 116.628,223.320 116.804,224.200 116.938 C 225.315 117.107,225.558 117.071,225.000 116.819 C 224.232 116.471,222.090 116.244,222.433 116.547 M227.600 117.600 C 228.968 118.038,230.019 118.038,229.000 117.600 C 228.560 117.411,227.840 117.262,227.400 117.268 C 226.757 117.277,226.796 117.343,227.600 117.600 M235.400 119.600 C 235.840 119.789,236.470 119.944,236.800 119.944 C 237.178 119.944,237.104 119.817,236.600 119.600 C 236.160 119.411,235.530 119.256,235.200 119.256 C 234.822 119.256,234.896 119.383,235.400 119.600 M160.112 125.895 C 161.164 125.977,162.784 125.976,163.712 125.892 C 164.640 125.808,163.780 125.741,161.800 125.742 C 159.820 125.743,159.060 125.812,160.112 125.895 M186.100 125.887 C 186.705 125.978,187.695 125.978,188.300 125.887 C 188.905 125.795,188.410 125.720,187.200 125.720 C 185.990 125.720,185.495 125.795,186.100 125.887 M155.399 206.200 L 155.400 286.600 156.600 286.637 C 157.730 286.672,157.736 286.665,156.701 286.512 L 155.602 286.349 155.500 206.075 L 155.397 125.800 155.399 206.200 M191.305 126.287 C 191.914 126.379,192.814 126.377,193.305 126.282 C 193.797 126.187,193.300 126.111,192.200 126.114 C 191.100 126.117,190.697 126.195,191.305 126.287 M194.900 126.676 C 195.285 126.776,195.915 126.776,196.300 126.676 C 196.685 126.575,196.370 126.493,195.600 126.493 C 194.830 126.493,194.515 126.575,194.900 126.676 M199.400 127.181 C 200.168 127.529,202.310 127.756,201.967 127.453 C 201.875 127.372,201.080 127.196,200.200 127.062 C 199.085 126.893,198.842 126.929,199.400 127.181 M205.600 128.400 C 206.968 128.838,208.019 128.838,207.000 128.400 C 206.560 128.211,205.840 128.062,205.400 128.068 C 204.757 128.077,204.796 128.143,205.600 128.400 M263.200 131.321 C 263.200 131.412,264.235 132.151,265.500 132.963 C 266.765 133.775,267.308 134.021,266.706 133.510 C 265.518 132.500,263.200 131.053,263.200 131.321 M268.000 134.525 C 268.000 134.624,268.661 135.209,269.468 135.825 C 270.276 136.441,270.811 136.741,270.656 136.491 C 270.340 135.979,268.000 134.247,268.000 134.525 M121.301 136.600 C 121.305 137.480,121.387 137.793,121.483 137.295 C 121.579 136.798,121.575 136.078,121.475 135.695 C 121.375 135.313,121.296 135.720,121.301 136.600 M229.225 136.937 C 229.416 137.146,233.124 139.589,234.700 140.544 C 236.145 141.420,234.906 140.318,233.100 139.122 C 230.950 137.697,228.823 136.498,229.225 136.937 M272.088 137.813 C 272.686 138.443,273.247 138.877,273.335 138.779 C 273.423 138.680,272.933 138.165,272.247 137.634 L 271.000 136.669 272.088 137.813 M121.746 142.200 C 121.747 144.400,121.814 145.249,121.895 144.087 C 121.976 142.924,121.976 141.124,121.893 140.087 C 121.811 139.049,121.745 140.000,121.746 142.200 M277.200 142.600 C 279.060 144.470,280.672 146.000,280.782 146.000 C 280.892 146.000,279.460 144.470,277.600 142.600 C 275.740 140.730,274.128 139.200,274.018 139.200 C 273.908 139.200,275.340 140.730,277.200 142.600 M235.613 141.100 C 235.619 141.265,236.114 141.746,236.713 142.168 L 237.800 142.936 236.830 141.868 C 235.811 140.746,235.592 140.607,235.613 141.100 M246.838 152.177 C 247.188 152.630,247.773 153.445,248.138 153.989 C 248.502 154.533,248.800 154.788,248.800 154.556 C 248.800 154.323,248.215 153.508,247.500 152.743 C 246.785 151.979,246.487 151.724,246.838 152.177 M292.067 165.220 C 292.301 165.892,292.567 166.367,292.657 166.276 C 292.856 166.078,292.101 164.000,291.831 164.000 C 291.727 164.000,291.833 164.549,292.067 165.220 M259.256 178.800 C 259.256 179.130,259.411 179.760,259.600 180.200 C 259.817 180.704,259.944 180.778,259.944 180.400 C 259.944 180.070,259.789 179.440,259.600 179.000 C 259.383 178.496,259.256 178.422,259.256 178.800 M297.062 183.400 C 297.196 184.280,297.372 185.075,297.453 185.167 C 297.756 185.510,297.529 183.368,297.181 182.600 C 296.929 182.042,296.893 182.285,297.062 183.400 M261.474 191.800 C 261.598 193.340,261.766 194.675,261.849 194.767 C 262.127 195.074,261.958 192.217,261.602 190.600 C 261.331 189.370,261.302 189.648,261.474 191.800 M298.124 192.200 C 298.126 193.520,298.201 194.012,298.290 193.293 C 298.379 192.574,298.377 191.494,298.286 190.893 C 298.195 190.292,298.122 190.880,298.124 192.200 M298.567 202.400 C 298.567 206.690,298.626 208.445,298.698 206.300 C 298.770 204.155,298.770 200.645,298.698 198.500 C 298.626 196.355,298.567 198.110,298.567 202.400 M262.166 205.200 C 262.166 209.270,262.225 210.935,262.298 208.900 C 262.371 206.865,262.371 203.535,262.298 201.500 C 262.225 199.465,262.166 201.130,262.166 205.200 M298.124 213.000 C 298.126 214.320,298.201 214.812,298.290 214.093 C 298.379 213.374,298.377 212.294,298.286 211.693 C 298.195 211.092,298.122 211.680,298.124 213.000 M261.435 218.635 C 261.283 220.316,261.241 221.774,261.342 221.876 C 261.443 221.977,261.655 220.688,261.812 219.012 C 261.969 217.336,262.011 215.877,261.905 215.771 C 261.799 215.666,261.588 216.954,261.435 218.635 M297.693 217.600 C 297.693 218.370,297.775 218.685,297.876 218.300 C 297.976 217.915,297.976 217.285,297.876 216.900 C 297.775 216.515,297.693 216.830,297.693 217.600 M297.254 220.800 C 297.219 221.350,297.096 222.250,296.983 222.800 L 296.777 223.800 297.207 222.815 C 297.443 222.274,297.565 221.374,297.478 220.815 L 297.320 219.800 297.254 220.800 M260.669 225.156 C 260.521 225.895,260.420 226.882,260.444 227.350 C 260.468 227.818,260.647 227.390,260.842 226.400 C 261.037 225.410,261.138 224.423,261.067 224.206 C 260.996 223.990,260.817 224.417,260.669 225.156 M296.200 226.800 C 296.046 227.710,296.004 228.538,296.107 228.640 C 296.210 228.743,296.413 228.077,296.560 227.160 C 296.707 226.243,296.748 225.415,296.653 225.320 C 296.558 225.224,296.354 225.890,296.200 226.800 M259.450 232.050 C 259.309 232.753,259.269 233.402,259.359 233.492 C 259.450 233.583,259.648 233.091,259.800 232.400 C 259.952 231.709,259.993 231.059,259.891 230.958 C 259.789 230.856,259.591 231.347,259.450 232.050 M258.649 235.415 C 258.512 235.773,258.415 236.366,258.434 236.733 C 258.453 237.100,258.627 236.869,258.821 236.220 C 259.198 234.958,259.065 234.333,258.649 235.415 M256.444 242.844 C 256.198 243.551,256.066 244.200,256.152 244.285 C 256.238 244.371,256.509 243.862,256.756 243.156 C 257.002 242.449,257.134 241.800,257.048 241.715 C 256.962 241.629,256.691 242.138,256.444 242.844 M283.814 258.235 C 283.441 258.804,283.205 259.338,283.289 259.422 C 283.373 259.507,283.758 259.041,284.144 258.388 C 285.006 256.928,284.748 256.809,283.814 258.235 M246.975 260.668 C 246.359 261.476,246.059 262.011,246.309 261.856 C 246.821 261.540,248.553 259.200,248.275 259.200 C 248.176 259.200,247.591 259.861,246.975 260.668 M281.663 261.200 C 281.175 261.860,280.923 262.400,281.102 262.400 C 281.281 262.400,281.746 261.860,282.136 261.200 C 282.526 260.540,282.779 260.000,282.698 260.000 C 282.617 260.000,282.151 260.540,281.663 261.200 M244.604 263.596 C 243.974 264.254,243.535 264.856,243.629 264.934 C 243.723 265.012,244.313 264.474,244.939 263.738 C 246.354 262.077,246.145 261.988,244.604 263.596 M241.273 267.250 C 240.323 268.146,239.614 268.948,239.698 269.031 C 239.782 269.115,240.641 268.377,241.608 267.392 C 243.801 265.157,243.587 265.066,241.273 267.250 M121.678 269.800 C 121.631 271.560,121.511 273.990,121.410 275.200 L 121.226 277.400 121.626 275.200 C 121.846 273.990,121.967 271.560,121.894 269.800 L 121.763 266.600 121.678 269.800 M274.213 269.992 L 271.426 273.000 274.395 270.115 C 276.027 268.528,277.281 267.174,277.182 267.107 C 277.082 267.039,275.746 268.337,274.213 269.992 M234.969 272.526 C 234.071 273.233,232.901 274.132,232.369 274.523 C 231.424 275.217,231.431 275.218,232.645 274.564 C 233.846 273.916,237.207 271.224,236.800 271.236 C 236.690 271.239,235.866 271.819,234.969 272.526 M225.600 278.200 C 224.610 278.730,223.980 279.164,224.200 279.164 C 224.420 279.164,225.410 278.730,226.400 278.200 C 227.390 277.670,228.020 277.236,227.800 277.236 C 227.580 277.236,226.590 277.670,225.600 278.200 M261.487 280.168 C 259.126 281.802,258.564 282.375,260.306 281.372 C 261.650 280.599,263.956 278.823,263.600 278.836 C 263.490 278.841,262.539 279.440,261.487 280.168 M210.000 283.600 C 209.196 283.857,209.157 283.923,209.800 283.932 C 210.240 283.938,210.960 283.789,211.400 283.600 C 212.419 283.162,211.368 283.162,210.000 283.600 M199.200 285.600 C 197.850 285.884,197.843 285.895,199.000 285.900 C 199.660 285.903,200.740 285.768,201.400 285.600 C 203.060 285.178,201.207 285.178,199.200 285.600 M194.900 286.276 C 195.285 286.376,195.915 286.376,196.300 286.276 C 196.685 286.175,196.370 286.093,195.600 286.093 C 194.830 286.093,194.515 286.175,194.900 286.276 M189.500 286.689 C 190.215 286.778,191.385 286.778,192.100 286.689 C 192.815 286.601,192.230 286.528,190.800 286.528 C 189.370 286.528,188.785 286.601,189.500 286.689 M159.700 287.091 C 160.525 287.178,161.875 287.178,162.700 287.091 C 163.525 287.005,162.850 286.934,161.200 286.934 C 159.550 286.934,158.875 287.005,159.700 287.091 M184.707 287.090 C 185.426 287.179,186.506 287.177,187.107 287.086 C 187.708 286.995,187.120 286.922,185.800 286.924 C 184.480 286.926,183.988 287.001,184.707 287.090 M235.000 292.400 C 234.496 292.617,234.422 292.744,234.800 292.744 C 235.130 292.744,235.760 292.589,236.200 292.400 C 236.704 292.183,236.778 292.056,236.400 292.056 C 236.070 292.056,235.440 292.211,235.000 292.400 M101.067 292.667 C 100.699 293.035,100.729 299.109,101.100 299.338 C 101.265 299.440,101.400 297.921,101.400 295.962 C 101.400 294.003,101.385 292.400,101.367 292.400 C 101.348 292.400,101.213 292.520,101.067 292.667 M223.800 295.200 L 223.000 295.544 223.800 295.566 C 224.240 295.578,224.870 295.413,225.200 295.200 C 225.995 294.686,224.996 294.686,223.800 295.200 M217.200 296.400 C 215.856 296.831,217.308 296.831,219.000 296.400 C 220.078 296.126,220.098 296.094,219.200 296.087 C 218.650 296.083,217.750 296.224,217.200 296.400 M211.400 297.200 L 209.800 297.486 211.200 297.515 C 211.970 297.531,212.960 297.389,213.400 297.200 C 214.343 296.795,213.662 296.795,211.400 297.200 M206.500 297.876 C 206.885 297.976,207.515 297.976,207.900 297.876 C 208.285 297.775,207.970 297.693,207.200 297.693 C 206.430 297.693,206.115 297.775,206.500 297.876 M201.700 298.287 C 202.305 298.378,203.295 298.378,203.900 298.287 C 204.505 298.195,204.010 298.120,202.800 298.120 C 201.590 298.120,201.095 298.195,201.700 298.287 M197.300 298.687 C 197.905 298.778,198.895 298.778,199.500 298.687 C 200.105 298.595,199.610 298.520,198.400 298.520 C 197.190 298.520,196.695 298.595,197.300 298.687 M179.200 299.200 L 172.200 299.429 178.800 299.468 C 182.430 299.489,186.570 299.375,188.000 299.214 L 190.600 298.922 188.400 298.947 C 187.190 298.960,183.050 299.074,179.200 299.200 " stroke="none" fill="#acaa8e" fill-rule="evenodd"></path><path id="path4" d="M101.369 113.737 C 101.255 114.033,101.225 115.608,101.302 117.237 L 101.441 120.200 101.521 116.902 L 101.600 113.604 142.100 113.500 L 182.600 113.396 142.087 113.298 C 108.474 113.217,101.540 113.292,101.369 113.737 M189.511 113.893 C 190.451 113.978,191.891 113.977,192.711 113.891 C 193.530 113.805,192.760 113.736,191.000 113.737 C 189.240 113.739,188.570 113.809,189.511 113.893 M198.900 114.287 C 199.505 114.378,200.495 114.378,201.100 114.287 C 201.705 114.195,201.210 114.120,200.000 114.120 C 198.790 114.120,198.295 114.195,198.900 114.287 M203.100 114.682 C 203.595 114.778,204.405 114.778,204.900 114.682 C 205.395 114.587,204.990 114.509,204.000 114.509 C 203.010 114.509,202.605 114.587,203.100 114.682 M211.705 115.487 C 212.314 115.579,213.214 115.577,213.705 115.482 C 214.197 115.387,213.700 115.311,212.600 115.314 C 211.500 115.317,211.097 115.395,211.705 115.487 M218.800 116.400 C 219.350 116.576,220.250 116.717,220.800 116.713 C 221.698 116.706,221.678 116.674,220.600 116.400 C 218.908 115.969,217.456 115.969,218.800 116.400 M229.400 118.400 C 229.840 118.589,230.470 118.744,230.800 118.744 C 231.178 118.744,231.104 118.617,230.600 118.400 C 230.160 118.211,229.530 118.056,229.200 118.056 C 228.822 118.056,228.896 118.183,229.400 118.400 M110.400 122.134 C 110.400 122.237,110.981 122.524,111.691 122.772 C 112.401 123.019,112.806 123.057,112.591 122.856 C 112.135 122.429,110.400 121.858,110.400 122.134 M113.600 123.350 C 113.600 123.444,114.241 123.899,115.024 124.361 C 115.807 124.823,116.336 125.020,116.199 124.798 C 115.931 124.364,113.600 123.066,113.600 123.350 M159.100 125.496 C 160.475 125.574,162.725 125.574,164.100 125.496 C 165.475 125.418,164.350 125.354,161.600 125.354 C 158.850 125.354,157.725 125.418,159.100 125.496 M185.700 125.491 C 186.525 125.578,187.875 125.578,188.700 125.491 C 189.525 125.405,188.850 125.334,187.200 125.334 C 185.550 125.334,184.875 125.405,185.700 125.491 M154.985 126.100 C 154.880 126.375,154.841 162.690,154.898 206.800 L 155.002 287.000 155.101 206.529 C 155.195 130.275,155.237 126.049,155.900 125.876 C 156.556 125.704,156.555 125.690,155.887 125.646 C 155.496 125.621,155.089 125.825,154.985 126.100 M197.905 126.683 C 198.402 126.779,199.122 126.775,199.505 126.675 C 199.887 126.575,199.480 126.496,198.600 126.501 C 197.720 126.505,197.407 126.587,197.905 126.683 M203.600 127.600 C 204.968 128.038,206.019 128.038,205.000 127.600 C 204.560 127.411,203.840 127.262,203.400 127.268 C 202.757 127.277,202.796 127.343,203.600 127.600 M121.058 133.200 C 121.375 134.925,121.602 135.251,121.594 133.967 C 121.591 133.435,121.411 132.730,121.194 132.400 C 120.918 131.978,120.877 132.215,121.058 133.200 M226.400 134.979 C 226.400 135.089,226.940 135.459,227.600 135.800 C 228.260 136.141,228.800 136.331,228.800 136.221 C 228.800 136.111,228.260 135.741,227.600 135.400 C 226.940 135.059,226.400 134.869,226.400 134.979 M229.600 136.820 C 230.987 137.761,231.778 138.035,230.800 137.236 C 230.250 136.786,229.620 136.417,229.400 136.415 C 229.180 136.413,229.270 136.596,229.600 136.820 M234.400 139.725 C 234.400 139.824,235.061 140.409,235.868 141.025 C 236.676 141.641,237.211 141.941,237.056 141.691 C 236.740 141.179,234.400 139.447,234.400 139.725 M122.195 206.200 C 122.195 242.720,122.242 257.719,122.300 239.532 C 122.358 221.344,122.358 191.464,122.300 173.132 C 122.242 154.799,122.195 169.680,122.195 206.200 M276.800 142.600 C 278.217 144.030,279.467 145.200,279.577 145.200 C 279.687 145.200,278.617 144.030,277.200 142.600 C 275.783 141.170,274.533 140.000,274.423 140.000 C 274.313 140.000,275.383 141.170,276.800 142.600 M292.229 166.400 C 292.376 166.950,292.664 167.670,292.867 168.000 C 293.125 168.417,293.157 168.295,292.971 167.600 C 292.824 167.050,292.536 166.330,292.333 166.000 C 292.075 165.583,292.043 165.705,292.229 166.400 M294.244 172.600 C 294.573 174.071,294.802 174.390,294.794 173.367 C 294.791 172.945,294.605 172.330,294.382 172.000 C 294.085 171.562,294.048 171.724,294.244 172.600 M259.044 176.600 C 259.373 178.071,259.602 178.390,259.594 177.367 C 259.591 176.945,259.405 176.330,259.182 176.000 C 258.885 175.562,258.848 175.724,259.044 176.600 M295.206 176.233 C 295.209 176.655,295.395 177.270,295.618 177.600 C 295.915 178.038,295.952 177.876,295.756 177.000 C 295.427 175.529,295.198 175.210,295.206 176.233 M296.493 182.000 C 296.493 182.770,296.575 183.085,296.676 182.700 C 296.776 182.315,296.776 181.685,296.676 181.300 C 296.575 180.915,296.493 181.230,296.493 182.000 M261.082 186.421 C 261.208 187.399,261.375 188.275,261.455 188.367 C 261.781 188.742,261.560 185.755,261.221 185.221 C 260.984 184.846,260.935 185.270,261.082 186.421 M297.240 187.833 C 297.262 188.695,297.427 189.850,297.607 190.400 C 297.811 191.021,297.851 190.491,297.712 189.000 C 297.454 186.221,297.182 185.549,297.240 187.833 M262.114 195.000 C 262.117 196.100,262.195 196.503,262.287 195.895 C 262.379 195.286,262.377 194.386,262.282 193.895 C 262.187 193.403,262.111 193.900,262.114 195.000 M298.163 202.400 C 298.163 206.030,298.223 207.515,298.298 205.700 C 298.372 203.885,298.372 200.915,298.298 199.100 C 298.223 197.285,298.163 198.770,298.163 202.400 M262.569 205.200 C 262.569 209.710,262.627 211.555,262.698 209.300 C 262.770 207.045,262.770 203.355,262.698 201.100 C 262.627 198.845,262.569 200.690,262.569 205.200 M262.114 215.800 C 262.117 216.900,262.195 217.303,262.287 216.695 C 262.379 216.086,262.377 215.186,262.282 214.695 C 262.187 214.203,262.111 214.700,262.114 215.800 M297.309 217.600 C 297.309 218.590,297.387 218.995,297.482 218.500 C 297.578 218.005,297.578 217.195,297.482 216.700 C 297.387 216.205,297.309 216.610,297.309 217.600 M296.493 223.600 C 296.493 224.370,296.575 224.685,296.676 224.300 C 296.776 223.915,296.776 223.285,296.676 222.900 C 296.575 222.515,296.493 222.830,296.493 223.600 M261.267 224.067 C 261.230 224.874,261.096 225.864,260.970 226.267 C 260.753 226.957,260.766 226.959,261.194 226.293 C 261.443 225.904,261.577 224.914,261.491 224.093 L 261.334 222.600 261.267 224.067 M295.449 228.615 C 295.312 228.973,295.215 229.566,295.234 229.933 C 295.253 230.300,295.427 230.069,295.621 229.420 C 295.998 228.158,295.865 227.533,295.449 228.615 M260.250 230.050 C 260.109 230.753,260.069 231.402,260.159 231.492 C 260.250 231.583,260.448 231.091,260.600 230.400 C 260.752 229.709,260.793 229.059,260.691 228.958 C 260.589 228.856,260.391 229.347,260.250 230.050 M294.446 232.867 C 294.421 233.234,294.296 233.864,294.170 234.267 C 293.952 234.962,293.963 234.963,294.397 234.287 C 294.648 233.896,294.773 233.266,294.673 232.887 C 294.511 232.268,294.488 232.266,294.446 232.867 M259.152 235.113 C 259.021 235.907,259.079 236.281,259.301 236.059 C 259.503 235.857,259.601 235.267,259.519 234.746 C 259.393 233.945,259.337 234.002,259.152 235.113 M280.904 261.654 C 279.971 262.944,279.290 264.000,279.391 264.000 C 279.678 264.000,282.931 259.595,282.756 259.443 C 282.670 259.369,281.837 260.364,280.904 261.654 M277.381 266.100 L 275.800 267.800 277.500 266.219 C 279.081 264.748,279.384 264.400,279.081 264.400 C 279.016 264.400,278.251 265.165,277.381 266.100 M242.000 267.000 C 241.028 267.990,240.323 268.800,240.433 268.800 C 240.543 268.800,241.428 267.990,242.400 267.000 C 243.372 266.010,244.077 265.200,243.967 265.200 C 243.857 265.200,242.972 266.010,242.000 267.000 M274.181 269.700 L 272.600 271.400 274.300 269.819 C 275.235 268.949,276.000 268.184,276.000 268.119 C 276.000 267.816,275.652 268.119,274.181 269.700 M235.000 273.050 C 234.281 273.662,234.134 273.905,234.633 273.657 C 235.366 273.293,236.741 271.976,236.349 272.014 C 236.267 272.022,235.660 272.488,235.000 273.050 M269.200 274.070 C 267.668 275.488,267.486 275.739,268.600 274.897 C 270.084 273.776,271.934 271.978,271.562 272.017 C 271.473 272.027,270.410 272.951,269.200 274.070 M121.254 278.667 C 121.225 279.144,121.096 279.864,120.970 280.267 C 120.752 280.961,120.764 280.962,121.196 280.288 C 121.447 279.897,121.575 279.177,121.481 278.688 C 121.309 277.801,121.309 277.801,121.254 278.667 M208.200 284.400 C 207.696 284.617,207.622 284.744,208.000 284.744 C 208.330 284.744,208.960 284.589,209.400 284.400 C 209.904 284.183,209.978 284.056,209.600 284.056 C 209.270 284.056,208.640 284.211,208.200 284.400 M204.000 285.200 C 202.616 285.491,202.614 285.495,203.800 285.541 C 204.460 285.567,205.270 285.413,205.600 285.200 C 206.266 284.770,206.045 284.770,204.000 285.200 M117.375 286.900 L 116.200 288.200 117.500 287.025 C 118.712 285.930,118.984 285.600,118.675 285.600 C 118.606 285.600,118.021 286.185,117.375 286.900 M195.800 286.400 C 194.439 286.644,194.379 286.692,195.400 286.720 C 196.060 286.739,197.320 286.605,198.200 286.423 C 200.293 285.990,198.202 285.970,195.800 286.400 M165.300 287.500 C 169.645 287.564,176.755 287.564,181.100 287.500 C 185.445 287.435,181.890 287.382,173.200 287.382 C 164.510 287.382,160.955 287.435,165.300 287.500 M107.800 291.200 L 106.600 291.505 107.676 291.553 C 108.268 291.579,108.864 291.420,109.000 291.200 C 109.136 290.980,109.192 290.821,109.124 290.847 C 109.056 290.873,108.460 291.032,107.800 291.200 M102.800 292.400 C 101.996 292.657,101.957 292.723,102.600 292.732 C 103.040 292.738,103.760 292.589,104.200 292.400 C 105.219 291.962,104.168 291.962,102.800 292.400 M233.600 292.400 C 232.776 292.664,232.741 292.726,233.400 292.754 C 233.840 292.773,234.470 292.613,234.800 292.400 C 235.501 291.947,235.014 291.947,233.600 292.400 M101.340 296.000 C 101.340 297.870,101.409 298.635,101.493 297.700 C 101.577 296.765,101.577 295.235,101.493 294.300 C 101.409 293.365,101.340 294.130,101.340 296.000 M224.000 294.806 C 223.578 295.082,223.815 295.123,224.800 294.942 C 226.525 294.625,226.851 294.398,225.567 294.406 C 225.035 294.409,224.330 294.589,224.000 294.806 M219.800 295.619 C 219.242 295.871,219.485 295.907,220.600 295.738 C 221.480 295.604,222.275 295.428,222.367 295.347 C 222.710 295.044,220.568 295.271,219.800 295.619 M213.100 296.682 C 213.595 296.778,214.405 296.778,214.900 296.682 C 215.395 296.587,214.990 296.509,214.000 296.509 C 213.010 296.509,212.605 296.587,213.100 296.682 M204.400 297.602 C 203.800 297.795,204.440 297.837,206.000 297.706 C 207.430 297.586,208.675 297.423,208.767 297.344 C 209.089 297.065,205.388 297.284,204.400 297.602 M196.700 298.282 C 197.195 298.378,198.005 298.378,198.500 298.282 C 198.995 298.187,198.590 298.109,197.600 298.109 C 196.610 298.109,196.205 298.187,196.700 298.282 M187.916 298.697 C 189.299 298.775,191.459 298.774,192.716 298.695 C 193.972 298.616,192.840 298.552,190.200 298.553 C 187.560 298.553,186.532 298.618,187.916 298.697 M178.900 299.091 C 179.725 299.178,181.075 299.178,181.900 299.091 C 182.725 299.005,182.050 298.934,180.400 298.934 C 178.750 298.934,178.075 299.005,178.900 299.091 " stroke="none" fill="#847c64" fill-rule="evenodd"></path></g></svg>